<svg width="155" height="47" viewBox="0 0 155 47" fill="none" xmlns="http://www.w3.org/2000/svg">
<path d="M17.0768 0H0V46.87L17.0768 0Z" fill="#0056B3"/>
<path d="M29.0917 0H46.1462V46.87L29.0917 0Z" fill="#0056B3"/>
<path d="M23.0843 17.2747L33.9534 46.87H26.8223L23.5738 37.4475H15.6195L23.0843 17.2747Z" fill="#0056B3"/>
<path d="M74.0057 29.8064L76.0193 36.4328C76.0861 36.5988 76.1862 36.6754 76.3642 36.6754H80.2357C80.4471 36.6754 80.4805 36.5605 80.4471 36.3179L72.4482 10.821C72.4149 10.6167 72.3815 10.5784 72.2035 10.5784H67.3975C67.264 10.5784 67.1861 10.6933 67.1861 10.8593C67.1194 12.1999 67.0193 12.6084 66.8746 13.0042L59.7436 36.2796C59.7102 36.5605 59.7881 36.6754 59.9883 36.6754H63.4482C63.6595 36.6754 63.7597 36.5988 63.8375 36.3562L65.7399 29.8064H74.0057ZM66.8413 25.4782C67.887 21.8522 69.2665 17.2048 69.8228 14.5491H69.8561C70.5459 17.3324 72.1701 22.8481 72.9044 25.4782H66.8413Z" fill="#0056B3"/>
<path d="M90.7301 37.0713C92.8104 37.0713 95.0243 36.6372 97.2715 35.5264C97.4495 35.4498 97.4829 35.3604 97.4829 35.1689C97.4162 34.4539 97.3383 33.4197 97.3383 32.6281V8.62496C97.3383 8.47175 97.3383 8.39514 97.1714 8.39514H93.4001C93.2555 8.39514 93.1887 8.47175 93.1887 8.67603V16.809C92.5991 16.7324 92.1875 16.6941 91.698 16.6941C85.6126 16.6941 81.8746 21.3032 81.8746 27.0614C81.8746 33.7389 85.7127 37.0713 90.7301 37.0713ZM93.1887 32.6281C92.5657 32.8579 91.876 32.9473 91.1751 32.9473C88.4161 32.9473 86.1577 31.1598 86.1577 26.8188C86.1577 22.9758 88.4828 20.7031 91.5645 20.7031C92.1875 20.7031 92.7326 20.7798 93.1887 20.984V32.6281Z" fill="#0056B3"/>
<path d="M109.514 16.6938C104.319 16.6938 101.104 21.2647 101.104 26.908C101.104 31.9512 103.663 37.071 109.437 37.071C114.32 37.071 117.747 32.947 117.747 26.7803C117.747 21.3413 114.843 16.6938 109.514 16.6938ZM109.303 20.7029C112.24 20.7029 113.486 23.6011 113.486 26.908C113.486 30.9936 111.65 33.0237 109.514 33.0237C106.878 33.0237 105.32 30.4829 105.32 26.8186C105.32 23.0521 106.978 20.7029 109.303 20.7029Z" fill="#0056B3"/>
<path d="M121.646 8.39514C121.501 8.39514 121.401 8.47175 121.401 8.67603V35.8456C121.401 35.9605 121.501 36.1648 121.646 36.2031C123.303 36.7904 125.039 37.0713 126.83 37.0713C131.959 37.0713 136.943 33.4197 136.943 26.0656C136.943 20.7414 133.761 16.6941 128.777 16.6941C127.631 16.6941 126.563 16.8984 125.629 17.2559L125.584 8.71433C125.584 8.43345 125.517 8.39514 125.273 8.39514H121.646ZM132.682 26.5507C132.682 30.9556 130.056 33.0239 127.219 33.0239C126.63 33.0239 126.107 32.9856 125.629 32.8196V21.2266C126.174 20.984 126.83 20.7798 128.043 20.7798C130.779 20.7798 132.682 22.7715 132.682 26.5507Z" fill="#0056B3"/>
<path d="M151.017 27.9804C152.708 27.9804 154.099 27.9421 154.577 27.8145C154.755 27.7762 154.822 27.6995 154.855 27.5336C154.955 27.0995 155 26.193 155 25.0822C155 21.303 153.02 16.6938 147.902 16.6938C142.674 16.6938 139.77 21.5838 139.77 27.0995C139.77 31.9895 142.017 37.071 148.314 37.071C150.672 37.071 152.196 36.6369 153.509 35.9219C153.643 35.8453 153.709 35.7176 153.709 35.4878V32.181C153.709 31.9895 153.609 31.9512 153.509 32.0278C152.196 32.6662 150.772 32.9854 149.215 32.9854C145.688 32.9854 144.086 30.751 143.986 27.9804H151.017ZM143.986 24.5587C144.264 22.618 145.332 20.5114 147.724 20.5114C150.361 20.5114 151.051 23.0521 151.051 24.2012C151.051 24.2395 151.051 24.4055 151.051 24.5204C150.906 24.5587 150.461 24.5587 149.148 24.5587H143.986Z" fill="#0056B3"/>
</svg>
