<svg width="81" height="84" viewBox="0 0 81 84" fill="none" xmlns="http://www.w3.org/2000/svg">
<g clip-path="url(#clip0_21_27)">
<path d="M42.503 39.4794C41.8844 38.8456 40.883 38.8456 40.2644 39.4794C39.6474 40.1116 39.6474 41.1378 40.2644 41.7716C40.883 42.4038 41.8844 42.4038 42.503 41.7716C43.12 41.1378 43.12 40.1116 42.503 39.4794Z" fill="#F8DB72"/>
<path d="M62.6377 18.8461C59.5464 15.6787 54.5422 15.6785 51.4507 18.8461C48.3675 22.0055 48.3674 27.1475 51.4512 30.3095C54.5355 33.468 59.5537 33.4693 62.6377 30.3092C65.7287 27.1419 65.7293 22.0139 62.6377 18.8461ZM60.4004 28.0165C58.5505 29.9122 55.5393 29.9122 53.6885 28.0168C51.8383 26.1198 51.8382 23.0342 53.6882 21.1387C55.5428 19.2382 58.5455 19.2379 60.4004 21.1387C62.255 23.0389 62.2553 26.1159 60.4004 28.0165Z" fill="#F8DB72"/>
<path d="M80.5363 0.504863C80.2256 0.186643 79.8016 0.0141585 79.3608 0.0311799C79.0031 0.0443108 70.4863 0.395115 60.3621 4.06186C52.2495 6.99701 45.4874 11.1994 40.2637 16.5522C39.0932 17.7516 37.9541 19.0236 36.8642 20.3449C31.6992 17.2295 27.5603 18.2064 24.9438 19.6412C18.9193 22.945 15.1903 31.9154 15.1903 38.3317C15.1908 38.9873 15.5763 39.5785 16.1673 39.8293C16.363 39.9124 16.5687 39.9528 16.7725 39.9528C17.1843 39.9528 17.5888 39.7879 17.8914 39.478C21.0686 36.2224 24.9875 36.426 26.2676 36.5984L26.8217 37.1661C25.7313 39.8247 24.853 42.4684 24.2088 45.0396C23.9762 45.9701 24.0547 46.9548 24.4004 47.8555C22.8772 48.5747 21.4077 49.6309 20.1281 50.942C16.0558 55.115 15.2289 65.2848 15.1957 65.7157C15.1593 66.1885 15.3267 66.6541 15.654 66.9895C15.9519 67.2946 16.3548 67.4643 16.7725 67.4643C16.8139 67.4643 16.8555 67.4627 16.8971 67.4593C17.3176 67.4254 27.2427 66.5781 31.315 62.4052C32.594 61.0946 33.6246 59.5889 34.3265 58.0285C35.257 58.4034 36.2148 58.4496 37.0761 58.2235C39.5842 57.5635 42.1639 56.6638 44.7587 55.5464L45.3127 56.1141C45.4809 57.4261 45.6796 61.4417 42.5026 64.697C42.0503 65.1606 41.9149 65.8578 42.1598 66.4635C42.4045 67.0693 42.9813 67.4642 43.6212 67.4642C49.8829 67.4642 58.6371 63.6431 61.8612 57.4698C63.2615 54.789 64.2148 50.5479 61.1745 45.2552C62.4633 44.139 63.7048 42.9718 64.8758 41.7718C70.0996 36.419 74.2006 29.49 77.065 21.1777C80.6435 10.803 80.9857 2.0757 80.9986 1.70933C81.0144 1.25948 80.8468 0.823245 80.5363 0.504863ZM18.7274 34.8449C19.7101 29.9714 22.5646 24.6236 26.4374 22.4997C29.0254 21.0806 31.8543 21.2196 34.862 22.9067C32.2996 26.36 30.072 30.0804 28.2151 34.0091C28.1916 33.9942 27.9068 33.6273 27.3778 33.5051C27.1602 33.4547 22.9743 32.5321 18.7274 34.8449ZM29.0776 60.1125C26.9024 62.3415 21.7995 63.5171 18.5742 63.9971C19.0428 60.6921 20.1903 55.4634 22.3654 53.2346C23.5836 51.9863 24.996 51.0399 26.4157 50.5069L31.7396 55.9622C31.2194 57.417 30.296 58.8643 29.0776 60.1125ZM36.2901 55.0828C35.8323 55.2029 35.302 55.0265 34.9077 54.6232C32.8611 52.526 32.0604 51.7056 31.8092 51.4483C31.3485 50.9762 30.2188 49.8186 27.7234 47.2615C27.3289 46.8564 27.1567 46.3132 27.2737 45.8448C27.7804 43.8227 28.4431 41.748 29.249 39.6534L42.3316 53.059C40.2871 53.8849 38.2627 54.5639 36.2901 55.0828ZM59.072 55.94C56.9992 59.9083 51.7804 62.8334 47.0245 63.8402C48.5409 60.9163 48.8751 57.1941 48.3211 54.937C48.1925 54.4128 47.8587 54.1492 47.84 54.1182C51.6738 52.2155 55.3044 49.9329 58.6747 47.3072C60.3211 50.3895 60.4567 53.2885 59.072 55.94ZM62.6388 39.4793C61.2132 40.9399 59.6782 42.351 58.0762 43.6734C54.2253 46.8507 49.9867 49.542 45.4646 51.6845L30.5904 36.4433C32.6812 31.8093 35.3077 27.466 38.4081 23.5205C39.6997 21.8778 41.0767 20.3047 42.5016 18.8447C47.1884 14.0421 53.2371 10.2199 60.4847 7.46858L73.7408 21.052C71.0561 28.4784 67.326 34.6765 62.6388 39.4793ZM74.8791 17.633L63.8214 6.30221C69.8459 4.38478 75.087 3.6668 77.703 3.40872C77.451 6.08984 76.7502 11.4604 74.8791 17.633Z" fill="#F8DB72"/>
<path d="M38.0273 66.989C37.4092 66.356 36.4075 66.3563 35.7899 66.9893L31.3159 71.5754C30.6983 72.2086 30.6984 73.2351 31.3162 73.868C31.9343 74.5008 32.9361 74.5008 33.5537 73.8676L38.0276 69.2816C38.6453 68.6484 38.6451 67.6219 38.0273 66.989Z" fill="#F8DB72"/>
<path d="M15.6549 44.0638C15.0373 43.4306 14.0357 43.4306 13.4176 44.0635L8.94204 48.6479C8.3241 49.2808 8.32394 50.3073 8.94156 50.9405C9.55903 51.5733 10.5606 51.574 11.1789 50.9408L15.6544 46.3564C16.2724 45.7235 16.2725 44.697 15.6549 44.0638Z" fill="#F8DB72"/>
<path d="M26.8413 69.2831C26.2238 68.6501 25.2219 68.6501 24.604 69.283L13.8873 80.2626C13.2694 80.8957 13.2694 81.9221 13.8871 82.5552C14.5046 83.1882 15.5065 83.1885 16.1244 82.5553L26.8411 71.5757C27.459 70.9427 27.459 69.9162 26.8413 69.2831Z" fill="#F8DB72"/>
<path d="M14.185 69.2831C13.5674 68.6501 12.5655 68.6501 11.9477 69.283L1.23103 80.2626C0.613086 80.8957 0.613086 81.9221 1.23087 82.5552C1.84833 83.1882 2.85023 83.1885 3.46817 82.5553L14.1848 71.5757C14.8028 70.9427 14.8028 69.9162 14.185 69.2831Z" fill="#F8DB72"/>
<path d="M13.4158 55.5261C12.7982 54.8933 11.7963 54.8933 11.1785 55.5263L0.46345 66.5076C-0.154332 67.1408 -0.154332 68.1671 0.463608 68.8003C1.08139 69.4333 2.08313 69.4333 2.70091 68.8001L13.416 57.8188C14.0338 57.1857 14.0338 56.1593 13.4158 55.5261Z" fill="#F8DB72"/>
<path d="M49.2142 32.6008C48.5963 31.9677 47.5948 31.9677 46.9767 32.6008L44.7397 34.893C44.122 35.526 44.122 36.5525 44.7397 37.1857C45.3577 37.8187 46.3593 37.8187 46.9772 37.1857L49.2142 34.8935C49.832 34.2604 49.832 33.234 49.2142 32.6008Z" fill="#F8DB72"/>
</g>
<defs>
<clipPath id="clip0_21_27">
<rect width="81" height="83" fill="white" transform="translate(0 0.0300293)"/>
</clipPath>
</defs>
</svg>
