<svg width="81" height="84" viewBox="0 0 81 84" fill="none" xmlns="http://www.w3.org/2000/svg">
<g clip-path="url(#clip0_21_69)">
<path d="M70.2001 24.7571C70.1935 18.6482 65.3617 13.6971 59.4001 13.6904H55.2895C54.5907 5.8551 48.1789 -0.142944 40.5001 -0.142944C32.8213 -0.142944 26.4095 5.8551 25.7107 13.6904H21.6001C15.6352 13.6904 10.8001 18.6449 10.8001 24.7571C10.8001 30.8693 15.6352 35.8237 21.6001 35.8237H36.4501V33.0571H21.6001C17.1269 33.0571 13.5001 29.3407 13.5001 24.7571C13.5001 20.1734 17.1269 16.4571 21.6001 16.4571H28.3501V15.0737C28.3501 8.19758 33.7896 2.62372 40.5001 2.62372C47.2105 2.62372 52.6501 8.19758 52.6501 15.0737V16.4571H59.4001C63.8733 16.4571 67.5001 20.1734 67.5001 24.7571C67.5001 29.3407 63.8733 33.0571 59.4001 33.0571H44.5501V35.8237H59.4001C65.3617 35.817 70.1935 30.8659 70.2001 24.7571Z" fill="#F8DB72"/>
<path d="M64.8001 78.7071V55.1904C64.7974 52.8993 62.986 51.0431 60.7501 51.0404H58.0501V48.0191C59.8266 47.3788 60.936 45.5659 60.7244 43.6482C60.5128 41.7306 59.0356 40.2169 57.1641 40.0001C55.2927 39.7833 53.5235 40.9201 52.8986 42.7404H41.8501V25.3299L44.9456 28.5018L46.8546 26.5457L40.5001 20.0343L34.1456 26.5457L36.0546 28.5018L39.1501 25.3299V42.7404H28.1016C27.4767 40.9201 25.7074 39.7826 23.836 40.0001C21.9646 40.2169 20.4874 41.7299 20.2758 43.6476C20.0642 45.5652 21.1736 47.3788 22.9501 48.0184V52.4238H14.8501C12.6141 52.4265 10.8027 54.2826 10.8001 56.5738V73.1738C10.8027 75.4649 12.6141 77.3211 14.8501 77.3238H22.9501V80.0904H18.9001V82.8571H29.7001V80.0904H25.6501V77.3238H33.7501C35.986 77.3211 37.7974 75.4649 37.8001 73.1738V56.5738C37.7974 54.2826 35.986 52.4265 33.7501 52.4238H25.6501V48.0191C26.7938 47.601 27.6935 46.679 28.1016 45.5071H52.8986C53.3066 46.679 54.2064 47.601 55.3501 48.0184V51.0404H47.2501C45.0141 51.0431 43.2027 52.8993 43.2001 55.1904V78.7071C43.2027 80.9982 45.0141 82.8544 47.2501 82.8571H60.7501C62.986 82.8544 64.7974 80.9982 64.8001 78.7071ZM35.1001 73.1738C35.0994 73.9377 34.4956 74.5564 33.7501 74.5571H14.8501C14.1045 74.5564 13.5007 73.9377 13.5001 73.1738V70.4071H35.1001V73.1738ZM33.7501 55.1904C34.4956 55.1911 35.0994 55.8098 35.1001 56.5738V67.6404H13.5001V56.5738C13.5007 55.8098 14.1045 55.1911 14.8501 55.1904H33.7501ZM24.3001 45.5071C23.5545 45.5071 22.9501 44.8877 22.9501 44.1238C22.9501 43.3598 23.5545 42.7404 24.3001 42.7404C25.0456 42.7404 25.6501 43.3598 25.6501 44.1238C25.6494 44.8877 25.0456 45.5064 24.3001 45.5071ZM56.7001 42.7404C57.4456 42.7404 58.0501 43.3598 58.0501 44.1238C58.0501 44.8877 57.4456 45.5071 56.7001 45.5071C55.9546 45.5071 55.3501 44.8877 55.3501 44.1238C55.3507 43.3598 55.9546 42.7411 56.7001 42.7404ZM45.9001 55.1904C45.9007 54.4265 46.5046 53.8078 47.2501 53.8071H60.7501C61.4956 53.8078 62.0994 54.4265 62.1001 55.1904V73.1738H45.9001V55.1904ZM45.9001 78.7071V75.9404H62.1001V78.7071C62.0994 79.471 61.4956 80.0898 60.7501 80.0904H47.2501C46.5046 80.0898 45.9007 79.471 45.9001 78.7071Z" fill="#F8DB72"/>
</g>
<defs>
<clipPath id="clip0_21_69">
<rect width="81" height="83" fill="white" transform="translate(0 0.0300293)"/>
</clipPath>
</defs>
</svg>
