<svg width="64" height="61" viewBox="0 0 64 61" fill="none" xmlns="http://www.w3.org/2000/svg">
<path d="M19.6027 39.3592C19.6177 40.3389 19.8839 42.2438 20.2837 43.731C21.1234 46.8793 22.5479 49.7921 24.5302 52.3587C26.5644 54.9972 29.0692 57.1166 31.9627 58.621C35.0037 60.2012 38.2986 61.0064 41.7211 61C45.1381 60.9944 48.4334 60.1734 51.4744 58.5812C54.3676 57.062 56.8701 54.9336 58.9011 52.2939C60.8821 49.7164 62.3044 46.7986 63.1466 43.6503C63.5699 42.0596 63.8373 40.4451 63.9446 38.825C64.0496 37.2269 64.0053 35.62 63.8126 34.0332C63.4356 30.9206 62.5176 28.0002 61.1044 25.3379C59.8119 22.8916 58.1459 20.75 56.1646 18.9471L56.1691 18.9433L36.1767 0.931331C36.1584 0.915491 36.1437 0.898477 36.1244 0.883811C34.8129 -0.297727 32.6069 -0.29362 31.1644 0.890264C29.7059 2.08764 29.5389 4.06792 30.8369 5.31663L30.8314 5.32338L39.1701 13.2797L13.7544 13.3114H13.7204C11.6197 13.3143 9.60045 14.9314 9.20046 16.9751C8.78971 19.0571 10.2167 20.7843 12.4009 20.7937L12.3974 20.8028L25.2799 20.7734L2.29197 41.477C2.26272 41.5022 2.23097 41.5286 2.20397 41.5539C0.0354728 43.5022 -0.665526 46.742 0.700222 48.7921C2.08647 50.8771 5.03396 50.8809 7.22496 48.8041L19.7709 36.7567C19.7709 36.7567 19.5879 38.383 19.6027 39.3592ZM51.8414 44.8052C49.2564 47.8954 45.6371 49.6475 41.7214 49.6568C37.7996 49.6648 34.1807 47.9282 31.5957 44.8436C30.3324 43.3403 29.4047 41.6105 28.8322 39.7681C28.2695 37.9549 28.053 36.0189 28.1979 34.0968C28.3344 32.2013 28.8154 30.3935 29.5829 28.7576C30.3369 27.1499 31.3754 25.6967 32.6579 24.4676C35.1704 22.0653 38.3696 20.7643 41.7154 20.759C45.0649 20.7538 48.2616 22.0427 50.7769 24.4374C52.0569 25.6609 53.0944 27.1088 53.8484 28.7142C54.626 30.3587 55.0999 32.1769 55.2391 34.0505C55.3819 35.9714 55.1645 37.9057 54.6024 39.7176C54.0289 41.5656 53.1044 43.2954 51.8414 44.8052Z" fill="#0056B3"/>
</svg>
