<svg width="763" height="510" viewBox="0 0 763 510" fill="none" xmlns="http://www.w3.org/2000/svg">
<path d="M286.169 496.923C422.449 496.923 532.925 391.538 532.925 261.538C532.925 131.539 422.449 26.1538 286.169 26.1538C149.889 26.1538 39.4124 131.539 39.4124 261.538C39.4124 391.538 149.889 496.923 286.169 496.923Z" fill="#F2F2F2"/>
<path d="M325.767 297.43C271.434 377.326 286.321 478.942 286.321 478.942C286.321 478.942 389.3 451.023 443.633 371.128C497.966 291.232 483.079 189.615 483.079 189.615C483.079 189.615 380.1 217.535 325.767 297.43Z" fill="#025492"/>
<path d="M286.154 477.308C286.154 477.308 284.823 477.106 282.374 476.636C280.421 476.26 277.732 475.722 274.448 474.983C245.093 468.412 167.049 446.199 116.024 387.798C52.1618 314.669 54.851 212.5 54.851 212.5C54.851 212.5 152.499 227.564 216.842 293.235C219.63 296.057 222.343 298.982 224.98 302.01C280.549 365.639 285.729 451.252 286.139 472.416C286.196 475.588 286.154 477.308 286.154 477.308Z" fill="#025492" fill-opacity="0.439216"/>
<path fill-rule="evenodd" clip-rule="evenodd" d="M246.571 297.43C300.904 377.326 286.017 478.942 286.017 478.942C286.017 478.942 183.038 451.023 128.704 371.128C74.3712 291.232 89.2586 189.615 89.2586 189.615C89.2586 189.615 192.238 217.535 246.571 297.43Z" stroke="#025492" stroke-opacity="0.564706" stroke-width="2"/>
<path opacity="0.1" d="M286.169 474.13C284.73 475.789 283.46 477.206 282.415 478.366C280.101 480.889 278.789 482.211 278.789 482.211C278.789 482.211 277.195 480.296 274.514 476.707C259.797 457.09 212.458 387.337 216.112 306.765C216.31 302.542 216.634 298.364 217.086 294.231C219.866 297.064 222.57 300.001 225.199 303.041C280.595 366.924 285.76 452.88 286.169 474.13Z" fill="black"/>
<path d="M368.221 312.671C363.888 407.913 289.462 482.212 289.462 482.212C289.462 482.212 222.061 402.091 226.394 306.849C230.726 211.606 305.152 137.308 305.152 137.308C305.152 137.308 372.553 217.428 368.221 312.671Z" fill="#025492" fill-opacity="0.439216"/>
<path d="M289.596 478.942L305.018 140.577" stroke="#025492" stroke-opacity="0.564706" stroke-width="2"/>
<path d="M381.273 510C591.844 510 762.546 499.754 762.546 487.116C762.546 474.477 591.844 464.231 381.273 464.231C170.702 464.231 0 474.477 0 487.116C0 499.754 170.702 510 381.273 510Z" fill="#025492" fill-opacity="0.564706"/>
<path d="M63.4027 478.943V387.404V478.943Z" fill="#3F3D56"/>
<path d="M63.4027 478.943V387.404" stroke="#3F3D56" stroke-width="2"/>
<path d="M63.4027 400.481C70.9738 400.481 77.1113 394.626 77.1113 387.404C77.1113 380.182 70.9738 374.327 63.4027 374.327C55.8316 374.327 49.694 380.182 49.694 387.404C49.694 394.626 55.8316 400.481 63.4027 400.481Z" fill="#3F3D56"/>
<path d="M63.4027 444.615C63.4027 444.615 61.4898 404.352 22.2766 409.032L63.4027 444.615Z" fill="#3F3D56"/>
<path d="M390.698 330.192V75.1923V330.192Z" fill="#3F3D56"/>
<path d="M390.698 330.192V75.1923" stroke="#3F3D56" stroke-width="2"/>
<path d="M390.697 94.8077C401.108 94.8077 409.547 86.7575 409.547 76.827C409.547 66.8965 401.108 58.8462 390.697 58.8462C380.287 58.8462 371.848 66.8965 371.848 76.827C371.848 86.7575 380.287 94.8077 390.697 94.8077Z" fill="#3F3D56"/>
<path d="M390.697 148.75C390.697 148.75 388.067 93.8459 334.149 100.228L390.697 148.75Z" fill="#3F3D56"/>
<path d="M613.953 189.615L597.885 218.442C597.885 218.442 481.703 239.62 496.534 272.564C511.366 305.508 528.052 353.748 536.704 352.571C545.356 351.395 592.941 325.51 594.795 317.862C596.649 310.215 552.154 274.329 552.154 274.329L625.695 260.798C625.695 260.798 636.201 307.861 622.605 340.217C609.009 372.573 600.975 460.228 610.245 461.405C619.515 462.581 642.999 469.641 653.505 463.17C664.011 456.698 668.954 314.921 668.954 314.921C668.954 314.921 691.202 221.971 677.606 211.382C664.011 200.793 613.953 189.615 613.953 189.615Z" fill="#025492"/>
<path d="M639.068 448.305C639.068 448.305 624.711 441.074 621.688 446.859C621.688 446.859 623.955 464.214 614.887 466.384C605.819 468.553 602.041 483.739 614.887 485.186C627.733 486.632 636.046 482.293 640.579 482.293C645.113 482.293 640.579 467.107 640.579 467.107L639.068 448.305Z" fill="#2F2E41"/>
<path d="M570.563 329.923C570.563 329.923 554.92 325.737 553.239 332.024C553.239 332.024 559.285 348.588 550.891 352.552C542.498 356.516 542.15 372.177 555.039 370.994C567.927 369.811 575.103 363.872 579.539 362.954C583.975 362.036 576.189 348.059 576.189 348.059L570.563 329.923Z" fill="#2F2E41"/>
<path d="M648.413 88.0383C648.413 88.0383 649.023 109.991 644.751 111.771C640.478 113.551 668.556 124.231 668.556 124.231L673.439 115.924C673.439 115.924 667.946 86.2584 669.166 83.8851C670.387 81.5118 648.413 88.0383 648.413 88.0383Z" fill="#9F616A"/>
<path d="M658.017 93.1731C678.837 93.1731 695.716 77.0725 695.716 57.2115C695.716 37.3505 678.837 21.25 658.017 21.25C637.196 21.25 620.318 37.3505 620.318 57.2115C620.318 77.0725 637.196 93.1731 658.017 93.1731Z" fill="#2F2E41"/>
<path d="M661.444 37.5962C669.962 37.5962 676.866 31.0096 676.866 22.8846C676.866 14.7597 669.962 8.1731 661.444 8.1731C652.927 8.1731 646.022 14.7597 646.022 22.8846C646.022 31.0096 652.927 37.5962 661.444 37.5962Z" fill="#2F2E41"/>
<path d="M640.687 14.7115C640.688 7.17993 646.688 0.864783 654.59 0.0795452C654.053 0.0266818 653.513 0.000131433 652.973 0C644.402 0 637.454 6.58658 637.454 14.7115C637.454 22.8365 644.402 29.4231 652.973 29.4231C653.513 29.4229 654.053 29.3964 654.59 29.3435C646.688 28.5583 640.688 22.2431 640.687 14.7115Z" fill="#2F2E41"/>
<path d="M656.303 99.7116C670.499 99.7116 682.007 88.7339 682.007 75.1923C682.007 61.6507 670.499 50.6731 656.303 50.6731C642.108 50.6731 630.6 61.6507 630.6 75.1923C630.6 88.7339 642.108 99.7116 656.303 99.7116Z" fill="#9F616A"/>
<path d="M675.582 107.573C675.582 107.573 653.385 114.014 642.286 107.573C631.187 101.132 604.672 119.869 600.356 128.067C596.04 136.264 616.388 144.462 616.388 144.462C616.388 144.462 610.577 160.292 611.763 168.176C612.997 176.374 610.838 193.062 610.838 193.062C610.838 193.062 665.313 227.143 677.432 211.799C679.282 209.457 694.697 154.416 694.697 154.416L716.279 133.922C716.279 133.922 702.713 115.185 694.697 113.428C686.682 111.672 675.582 107.573 675.582 107.573Z" fill="#D0CDE1"/>
<path d="M525.963 227.212C525.963 227.212 484.403 248.197 492.96 254.193C501.516 260.189 536.352 230.809 536.352 230.809L525.963 227.212Z" fill="#9F616A"/>
<path d="M690.442 212.4C690.442 212.4 671.6 199.786 668.566 206.093C665.532 212.4 689.196 226.601 694.178 221.044C699.16 215.487 690.442 212.4 690.442 212.4Z" fill="#9F616A"/>
<path d="M705.6 125.865L716.59 132.385C716.59 132.385 753.831 182.169 741.01 193.43C728.189 204.69 695.222 227.212 695.222 227.212C695.222 227.212 684.232 211.802 687.895 211.21C691.558 210.617 720.863 186.91 720.863 186.91L695.222 140.682L705.6 125.865Z" fill="#D0CDE1"/>
<path d="M606.917 124.231L598.92 127.19L578.006 163.296L522.644 227.813C522.644 227.813 530.025 239.059 536.177 236.692C542.328 234.324 588.463 184.605 588.463 184.605L618.604 139.62L606.917 124.231Z" fill="#D0CDE1"/>
<path d="M658.874 60.4807C673.543 60.4807 685.434 53.8941 685.434 45.7692C685.434 37.6442 673.543 31.0576 658.874 31.0576C644.205 31.0576 632.313 37.6442 632.313 45.7692C632.313 53.8941 644.205 60.4807 658.874 60.4807Z" fill="#2F2E41"/>
<rect x="483.231" y="364.519" width="121.665" height="116.058" fill="#025492"/>
<path fill-rule="evenodd" clip-rule="evenodd" d="M566.968 445.284C579.708 445.284 587.76 434.949 587.76 418.551C587.76 396.245 569.846 380.865 543.996 380.865C517.101 380.865 498.653 398.17 498.653 423.376C498.653 449.2 516.73 465.842 544.97 465.864C549.864 465.887 554.745 465.382 559.52 464.359C561.457 463.913 562.666 462.073 562.244 460.216C561.822 458.358 559.922 457.162 557.965 457.521C553.798 458.221 549.573 458.562 545.341 458.539C522.113 458.539 507.193 444.952 507.193 423.663C507.193 402.84 522.276 388.124 543.439 388.124C564.833 388.124 579.313 400.45 579.313 418.883C579.313 430.435 575.229 437.87 568.802 437.87C565.089 437.87 563.024 435.724 563.024 432.161V403.548H553.765V409.7H552.837C550.702 405.207 545.852 402.463 540.144 402.463C529.028 402.463 521.417 411.072 521.417 423.442C521.417 436.321 528.982 444.974 540.306 444.974C546.664 444.974 551.398 442.163 553.695 437.029H554.623C555.482 441.964 560.448 445.284 566.968 445.284ZM542.023 436.786C535.456 436.786 531.419 431.829 531.419 423.641C531.419 415.431 535.387 410.607 542.139 410.607C548.938 410.607 553.301 415.586 553.301 423.641C553.301 431.696 548.938 436.786 542.023 436.786Z" fill="white"/>
</svg>
