<svg width="81" height="83" viewBox="0 0 81 83" fill="none" xmlns="http://www.w3.org/2000/svg">
<path d="M40.5 0C18.1669 0 0 18.6173 0 41.5C0 64.3827 18.1669 83 40.5 83C62.8331 83 81 64.3827 81 41.5C81 18.6173 62.8331 0 40.5 0ZM40.5 79.5417C20.0291 79.5417 3.37495 62.4763 3.37495 41.5C3.37495 20.5237 20.0291 3.45828 40.5 3.45828C60.9709 3.45828 77.6251 20.5237 77.6251 41.5C77.6251 62.4763 60.9709 79.5417 40.5 79.5417Z" fill="#F8DB72"/>
<path d="M32.0624 17.2917H21.9374C19.1458 17.2917 16.8749 19.6187 16.8749 22.4792V32.8542C16.8749 35.7148 19.1458 38.0417 21.9374 38.0417H32.0624C34.8541 38.0417 37.1249 35.7148 37.1249 32.8542V22.4792C37.1249 19.6187 34.8541 17.2917 32.0624 17.2917ZM33.7498 32.8542C33.7498 33.8083 32.9917 34.5835 32.0623 34.5835H21.9373C21.0078 34.5835 20.2497 33.8084 20.2497 32.8542V22.4792C20.2497 21.5252 21.0078 20.75 21.9373 20.75H32.0623C32.9917 20.75 33.7498 21.5251 33.7498 22.4792V32.8542Z" fill="#F8DB72"/>
<path d="M59.0625 17.2917H48.9375C46.1459 17.2917 43.875 19.6187 43.875 22.4792V32.8542C43.875 35.7148 46.1459 38.0417 48.9375 38.0417H59.0625C61.8542 38.0417 64.125 35.7148 64.125 32.8542V22.4792C64.125 19.6187 61.8542 17.2917 59.0625 17.2917ZM60.7501 32.8542C60.7501 33.8083 59.992 34.5835 59.0625 34.5835H48.9375C48.0081 34.5835 47.25 33.8084 47.25 32.8542V22.4792C47.25 21.5252 48.0081 20.75 48.9375 20.75H59.0625C59.992 20.75 60.7501 21.5251 60.7501 22.4792V32.8542Z" fill="#F8DB72"/>
<path d="M32.0624 44.9583H21.9374C19.1458 44.9583 16.8749 47.2852 16.8749 50.1458V60.5208C16.8749 63.3813 19.1458 65.7083 21.9374 65.7083H32.0624C34.8541 65.7083 37.1249 63.3813 37.1249 60.5208V50.1458C37.1249 47.2853 34.8541 44.9583 32.0624 44.9583ZM33.7498 60.5208C33.7498 61.4748 32.9917 62.25 32.0623 62.25H21.9373C21.0078 62.25 20.2497 61.4749 20.2497 60.5208V50.1458C20.2497 49.1917 21.0078 48.4165 21.9373 48.4165H32.0623C32.9917 48.4165 33.7498 49.1916 33.7498 50.1458V60.5208Z" fill="#F8DB72"/>
<path d="M59.0625 44.9583H48.9375C46.1459 44.9583 43.875 47.2852 43.875 50.1458V60.5208C43.875 63.3813 46.1459 65.7083 48.9375 65.7083H59.0625C61.8542 65.7083 64.125 63.3813 64.125 60.5208V50.1458C64.125 47.2853 61.8542 44.9583 59.0625 44.9583ZM60.7501 60.5208C60.7501 61.4748 59.992 62.25 59.0625 62.25H48.9375C48.0081 62.25 47.25 61.4749 47.25 60.5208V50.1458C47.25 49.1917 48.0081 48.4165 48.9375 48.4165H59.0625C59.992 48.4165 60.7501 49.1916 60.7501 50.1458V60.5208Z" fill="#F8DB72"/>
</svg>
