<svg width="155" height="46" viewBox="0 0 155 46" fill="none" xmlns="http://www.w3.org/2000/svg">
<path d="M153.983 31.4094C153.75 31.4094 153.516 31.5531 153.361 31.9125C151.807 36.0813 149.632 38.5969 147.845 38.5969C146.835 38.5969 146.447 37.5188 146.447 35.9375C146.447 31.8406 149.088 23.1437 150.409 19.1187C150.564 18.6156 150.642 18.1844 150.642 17.825C150.642 16.675 149.943 16.1 148.233 16.1C146.447 16.1 144.427 16.7469 142.562 19.8375C141.941 17.1062 139.921 15.9563 137.124 15.9563C133.938 15.9563 130.831 17.8969 128.267 20.9875C125.703 24.0781 122.673 25.0844 120.42 24.5813C122.052 20.9156 122.673 18.1125 122.673 16.1C122.673 12.8656 120.964 10.925 118.167 10.925C113.972 10.925 111.564 14.6625 111.564 18.5437C111.564 21.5625 113.04 24.6531 116.303 26.1625C113.584 31.8406 109.621 37.0156 108.067 37.0156C106.125 37.0156 105.504 28.175 105.659 21.85C105.737 18.2563 106.048 18.0406 106.048 16.9625C106.048 16.3156 105.581 15.8844 103.795 15.8844C99.6769 15.8844 98.3562 19.1187 98.2008 22.8562C98.1231 24.2937 97.89 25.6594 97.5016 27.025C95.7924 32.7031 92.2186 37.0875 89.8879 37.0875C88.8002 37.0875 88.4895 36.0813 88.4895 34.7875C88.4895 30.6906 90.9756 25.5156 90.9756 21.1313C90.9756 17.8969 89.4218 15.8844 86.5472 15.8844C83.1288 15.8844 78.7005 19.6219 74.4275 26.5938C75.8259 21.275 76.3698 16.1 72.2522 16.1C71.3199 16.1 70.4653 16.3156 69.6884 16.7469C69.1446 16.9625 68.8338 17.4656 68.8338 18.0406C69.2222 23.7187 63.8616 38.3094 58.8117 38.3094C57.8794 38.3094 57.4133 37.375 57.4133 35.8656C57.4133 31.7688 60.0548 23.0719 61.3755 19.0469C61.5309 18.5437 61.6086 18.1125 61.6086 17.6812C61.6086 16.6031 60.9094 16.0281 59.2002 16.0281C57.4133 16.0281 55.3933 16.675 53.5288 19.7656C52.8295 17.0344 50.8873 15.8844 48.0904 15.8844C43.5067 15.8844 38.4568 20.3406 36.2038 26.1625C33.1738 33.925 27.1917 41.4719 19.0342 41.4719C11.6536 41.4719 7.76905 35.7937 7.76905 26.8094C7.76905 13.8 18.1019 3.23438 25.7156 3.23438C29.367 3.23438 31.0762 5.39063 31.0762 8.69688C31.0762 12.7219 28.6678 14.5188 28.6678 16.1C28.6678 16.5313 29.0562 17.0344 29.9108 17.0344C33.2515 17.0344 37.1361 13.4406 37.1361 8.48125C37.1361 3.52187 32.9408 0 25.3271 0C12.6636 0 0 11.7156 0 26.8094C0 38.8125 6.37062 46 17.4027 46C24.9387 46 31.5423 40.6094 35.0384 34.2844C35.4269 39.5312 37.9907 42.2625 41.9529 42.2625C45.4489 42.2625 48.2458 40.3219 50.4211 36.9438C51.2757 40.4656 53.4511 42.1906 56.3256 42.1906C59.5886 42.1906 62.3855 40.25 64.9493 36.7281C64.9493 39.5312 65.5708 42.1906 68.2123 42.1906C69.4553 42.1906 70.9314 41.9031 71.1645 40.8969C73.9614 30.3313 80.7981 21.6344 82.8958 21.6344C83.5173 21.6344 83.6727 22.2094 83.6727 22.8562C83.6727 25.7312 81.4973 31.625 81.4973 35.3625C81.4973 39.4594 83.3619 42.1187 87.2464 42.1187C91.5194 42.1187 95.8701 37.3031 98.7446 30.1875C99.6769 36.8 101.619 42.1187 104.649 42.1187C108.378 42.1187 115.137 34.7875 119.177 27.025C120.731 27.2406 123.139 27.1688 125.47 25.6594C124.46 27.9594 123.916 30.475 123.916 32.9188C123.916 40.1063 127.645 42.1187 130.831 42.1187C134.327 42.1187 137.124 40.1781 139.299 36.8C139.998 39.8187 141.863 42.0469 145.204 42.0469C150.409 42.0469 154.993 37.0875 154.993 32.9906C155.07 32.1281 154.526 31.4094 153.983 31.4094ZM45.2159 38.2375C43.1182 38.2375 42.2636 36.2969 42.2636 33.35C42.2636 28.2469 46.0705 19.6938 50.0327 19.6938C51.7419 19.6938 52.4411 21.5625 52.4411 23.9344C52.4411 29.1094 48.8673 38.2375 45.2159 38.2375ZM117.701 23C116.458 21.6344 115.992 19.6937 115.992 18.0406C115.992 15.9562 116.847 14.2312 117.779 14.2312C118.711 14.2312 119.1 15.0937 119.1 16.3875C119.022 18.4 118.245 21.4906 117.701 23ZM134.094 38.2375C131.996 38.2375 131.142 35.9375 131.142 33.35C131.142 28.3906 134.948 19.6938 138.911 19.6938C140.62 19.6938 141.241 21.5625 141.241 23.9344C141.319 29.1094 137.823 38.2375 134.094 38.2375Z" fill="#0056B3"/>
</svg>
