<svg width="155" height="47" viewBox="0 0 155 47" fill="none" xmlns="http://www.w3.org/2000/svg">
<path d="M53.2563 5.59028V34.1378L56.9221 34.1491V20.5544H65.7605V16.9611H56.9221V9.18188H68.4328V5.5885L53.2563 5.59028Z" fill="#0056B3"/>
<path d="M75.031 11.3852C76.3514 11.3852 77.4217 10.3126 77.4217 8.98958C77.4217 7.66653 76.3514 6.59399 75.031 6.59399C73.7107 6.59399 72.6403 7.66653 72.6403 8.98958C72.6403 10.3126 73.7107 11.3852 75.031 11.3852Z" fill="#0056B3"/>
<path d="M73.1662 14.9786V34.1434H76.8319V14.9786H73.1662Z" fill="#0056B3"/>
<path fill-rule="evenodd" clip-rule="evenodd" d="M90.4282 14.4197C85.5603 14.4197 82.1632 18.545 82.1632 23.443C82.1632 28.3411 85.5603 32.4665 90.4282 32.4665C92.6568 32.4665 94.4934 31.6018 95.8301 30.1945V32.746C95.8301 35.9212 93.341 38.5752 90.0924 38.5752C88.9248 38.5752 87.7646 38.1216 86.8403 37.4833L85.0036 40.671C86.4705 41.6186 88.2174 42.1686 90.0924 42.1686C95.2859 42.1686 99.4958 37.9499 99.4958 32.746V14.9786H95.8301V16.6917C94.4934 15.2842 92.6568 14.4197 90.4282 14.4197ZM85.8289 23.443C85.8289 20.4027 88.1498 18.0131 90.8267 18.0131C93.5037 18.0131 95.8244 20.4027 95.8244 23.443C95.8244 26.4833 93.5037 28.8731 90.8267 28.8731C88.1498 28.8731 85.8289 26.4833 85.8289 23.443Z" fill="#0056B3"/>
<path d="M112.705 18.0131C110.537 18.0131 108.78 19.8536 108.78 22.0256V34.1434H105.114V14.9786H108.78V16.7342C109.854 15.3429 111.436 14.4197 113.501 14.4197C116.07 14.4197 118.041 15.6981 119.183 17.6545C120.453 15.7648 122.524 14.4197 125.017 14.4197C129.189 14.4197 131.786 17.7927 131.81 21.9657C131.81 21.9783 131.81 21.9909 131.81 22.0037V22.0044V22.0049V22.0057C131.81 22.0123 131.81 22.019 131.81 22.0256V34.1434H128.145V22.0256C128.145 19.8536 126.387 18.0131 124.22 18.0131C122.052 18.0131 120.295 19.8536 120.295 22.0256V34.1434H116.629V22.0256C116.629 19.8536 114.872 18.0131 112.705 18.0131Z" fill="#0056B3"/>
<path fill-rule="evenodd" clip-rule="evenodd" d="M151.334 17.1511C149.703 15.4638 147.47 14.4197 144.879 14.4197C139.426 14.4197 135.556 19.0464 135.556 24.561C135.556 30.0755 139.426 34.7023 144.879 34.7023C147.47 34.7023 149.703 33.6583 151.334 31.9709V34.1434H155V14.9786H151.334V17.1511ZM139.221 24.561C139.221 20.9025 142.017 18.0131 145.278 18.0131C148.539 18.0131 151.334 20.9025 151.334 24.561C151.334 28.2196 148.539 31.1089 145.278 31.1089C142.017 31.1089 139.221 28.2196 139.221 24.561Z" fill="#0056B3"/>
<path d="M17.0898 23.4351C17.0898 19.1209 20.9155 15.6234 25.6347 15.6234C30.3538 15.6234 34.1796 19.1209 34.1796 23.4351C34.1796 27.7494 30.3538 31.2468 25.6347 31.2468C20.9155 31.2468 17.0898 27.7494 17.0898 23.4351Z" fill="#0056B3"/>
<path d="M0 39.0585C0 34.7443 3.82567 31.2468 8.54487 31.2468H17.0897V39.0585C17.0897 43.3729 13.2641 46.8702 8.54487 46.8702C3.82567 46.8702 0 43.3729 0 39.0585Z" fill="#0056B3"/>
<path d="M17.0898 0V15.6234H25.6347C30.354 15.6234 34.1796 12.126 34.1796 7.81171C34.1796 3.49742 30.354 0 25.6347 0H17.0898Z" fill="#0056B3"/>
<path d="M0 7.81171C0 12.126 3.82567 15.6234 8.54487 15.6234H17.0897V0H8.54487C3.82567 0 0 3.49742 0 7.81171Z" fill="#0056B3"/>
<path d="M0 23.4351C0 27.7494 3.82567 31.2468 8.54487 31.2468H17.0897V15.6234H8.54487C3.82567 15.6234 0 19.1209 0 23.4351Z" fill="#0056B3"/>
</svg>
