<svg width="64" height="61" viewBox="0 0 64 61" fill="none" xmlns="http://www.w3.org/2000/svg">
<path d="M45.3295 24.5117V41.788H40.7067V24.5117H45.3295ZM40.4457 19.6871C40.4457 18.3391 41.4862 17.3103 43.0147 17.3103C44.5839 17.3103 45.5532 18.3391 45.5904 19.6871C45.5904 20.9997 44.5805 22.0285 42.9808 22.0285C41.4523 22.0285 40.4457 20.9997 40.4457 19.6871Z" fill="#0056B3"/>
<path fill-rule="evenodd" clip-rule="evenodd" d="M34.1488 41.7879L31.8747 35.0122H23.8966L21.7344 41.7879H16.9998L25.0523 17.8778H30.9054L39.0698 41.7879H34.1488ZM26.5808 25.8242L24.6423 31.713H31.0918L29.1159 25.8242C28.7228 24.6471 28.3805 23.3538 28.0653 22.1703C27.9936 21.8981 27.9213 21.6262 27.8484 21.3543H27.7738C27.645 21.8284 27.5196 22.3347 27.3874 22.854C27.1367 23.8537 26.8757 24.8922 26.5808 25.8242Z" fill="#0056B3"/>
<path fill-rule="evenodd" clip-rule="evenodd" d="M49.8201 0.93703C37.9763 -0.312343 26.0237 -0.312343 14.18 0.93703C7.36105 1.66265 1.85371 6.77426 1.05387 13.2952C-0.351292 24.7264 -0.351292 36.2746 1.05387 47.7058C1.85371 54.2267 7.35766 59.3383 14.18 60.0639C26.0238 61.312 37.9763 61.312 49.8201 60.0639C56.639 59.3383 62.1464 54.2267 62.9462 47.7058C64.3513 36.2745 64.3513 24.7264 62.9462 13.2952C62.1464 6.77426 56.6424 1.66265 49.8201 0.93703ZM14.7426 5.74226C26.2124 4.53248 37.7877 4.53248 49.2575 5.74226C53.765 6.22601 57.3745 9.60902 57.8998 13.8596C59.2587 24.9158 59.2587 36.0851 57.8998 47.1414C57.6281 49.2217 56.6273 51.154 55.0592 52.6263C53.491 54.0986 51.4471 55.0249 49.2575 55.2555C37.7877 56.4654 26.2124 56.4654 14.7426 55.2555C12.553 55.0249 10.5091 54.0986 8.94091 52.6263C7.37277 51.154 6.37201 49.2217 6.10029 47.1414C4.74141 36.0851 4.74141 24.9158 6.10029 13.8596C6.37201 11.7793 7.37277 9.84696 8.94091 8.37466C10.5091 6.90236 12.553 5.97287 14.7426 5.74226Z" fill="#0056B3"/>
</svg>
