<svg width="64" height="61" viewBox="0 0 64 61" fill="none" xmlns="http://www.w3.org/2000/svg">
<path fill-rule="evenodd" clip-rule="evenodd" d="M22.1545 41.7879H17.6063V18.1971C19.2466 17.9133 21.5207 17.7004 24.615 17.7004C27.9702 17.7004 30.4307 18.3745 32.0372 19.6516C33.5284 20.8222 34.4943 22.7024 34.4943 24.9373C34.4943 27.2077 33.7487 29.0879 32.332 30.365C30.5053 32.1032 27.6347 32.9192 24.3913 32.9192C23.5339 32.9192 22.751 32.8837 22.1545 32.7773V41.7879ZM24.8014 21.0351C23.5339 21.0351 22.6391 21.1415 22.1579 21.2479V29.3362C22.7137 29.4781 23.4593 29.5136 24.3947 29.5136C27.8211 29.5136 29.9088 27.9172 29.9088 25.1147C29.9088 22.4541 27.9702 21.0351 24.8014 21.0351Z" fill="#0056B3"/>
<path d="M40.354 42.1779C38.1511 42.1779 36.1786 41.6458 34.8365 40.9363L35.7313 37.779C36.7751 38.3821 38.7476 39.0207 40.3913 39.0207C42.4045 39.0207 43.2992 38.2402 43.2992 37.105C43.2992 35.9343 42.5536 35.3313 40.3168 34.5863C36.7751 33.4156 35.2839 31.5709 35.3212 29.5489C35.3212 26.498 37.9647 24.1212 42.1808 24.1212C44.1939 24.1212 45.9427 24.6179 46.9899 25.15L46.0952 28.2363C44.9211 27.6085 43.6019 27.2673 42.2553 27.243C40.615 27.243 39.7203 27.988 39.7203 29.0522C39.7203 30.1519 40.5777 30.6841 42.8891 31.4645C46.1698 32.5997 47.6983 34.1961 47.7355 36.7503C47.7355 39.872 45.1598 42.1779 40.354 42.1779Z" fill="#0056B3"/>
<path fill-rule="evenodd" clip-rule="evenodd" d="M49.8199 0.93703C37.9762 -0.312343 26.0236 -0.312343 14.1799 0.93703C7.361 1.66265 1.85368 6.77426 1.05385 13.2952C-0.351283 24.7264 -0.351283 36.2745 1.05385 47.7058C1.85368 54.2267 7.35761 59.3383 14.1799 60.0639C26.0237 61.312 37.9761 61.312 49.8199 60.0639C56.6388 59.3383 62.1461 54.2267 62.946 47.7058C64.3513 36.2746 64.3513 24.7264 62.946 13.2952C62.1461 6.77426 56.6422 1.66265 49.8199 0.93703ZM14.7425 5.74226C26.2123 4.53248 37.7875 4.53248 49.2573 5.74226C53.7648 6.22601 57.3743 9.60902 57.8996 13.8596C59.2584 24.9158 59.2584 36.0851 57.8996 47.1414C57.6278 49.2217 56.6271 51.154 55.059 52.6263C53.4908 54.0986 51.4469 55.0249 49.2573 55.2555C37.7875 56.4653 26.2123 56.4653 14.7425 55.2555C12.5529 55.0249 10.509 54.0986 8.94086 52.6263C7.37272 51.154 6.37196 49.2217 6.10025 47.1414C4.74137 36.0851 4.74137 24.9158 6.10025 13.8596C6.37196 11.7793 7.37272 9.84696 8.94086 8.37466C10.509 6.90236 12.5529 5.97287 14.7425 5.74226Z" fill="#0056B3"/>
</svg>
