<svg width="44" height="79" viewBox="0 0 44 79" fill="none" xmlns="http://www.w3.org/2000/svg">
<path d="M37.9688 0H5.0625C3.72038 0.00175807 2.43374 0.535692 1.48471 1.48471C0.535692 2.43374 0.00175807 3.72038 0 5.0625V73.4062C0.00175807 74.7484 0.535692 76.035 1.48471 76.984C2.43374 77.9331 3.72038 78.467 5.0625 78.4688H37.9688C39.3109 78.467 40.5975 77.9331 41.5465 76.984C42.4956 76.035 43.0295 74.7484 43.0312 73.4062V5.0625C43.0295 3.72038 42.4956 2.43374 41.5465 1.48471C40.5975 0.535692 39.3109 0.00175807 37.9688 0ZM27.4388 2.53125L26.7268 5.0625H16.1763L15.5435 2.53125H27.4388ZM40.5 73.4062C40.4991 74.0773 40.2322 74.7206 39.7576 75.1951C39.2831 75.6697 38.6398 75.9366 37.9688 75.9375H5.0625C4.39144 75.9366 3.74812 75.6697 3.27361 75.1951C2.7991 74.7206 2.53213 74.0773 2.53125 73.4062V5.0625C2.53213 4.39144 2.7991 3.74812 3.27361 3.27361C3.74812 2.7991 4.39144 2.53213 5.0625 2.53125H12.9331L13.9598 6.63504C14.0283 6.90884 14.1863 7.15192 14.4087 7.32562C14.6312 7.49933 14.9053 7.59371 15.1875 7.59375H27.6855C27.9614 7.59375 28.2296 7.50365 28.4495 7.33716C28.6694 7.17066 28.8289 6.9369 28.9037 6.67143L30.0681 2.53125H37.9688C38.6398 2.53213 39.2831 2.7991 39.7576 3.27361C40.2322 3.74812 40.4991 4.39144 40.5 5.0625V73.4062Z" fill="#F8DB72"/>
<path d="M15.1875 70.875H6.32816C5.99249 70.875 5.67057 71.0083 5.43322 71.2457C5.19587 71.483 5.06253 71.805 5.06253 72.1406C5.06253 72.4763 5.19587 72.7982 5.43322 73.0356C5.67057 73.2729 5.99249 73.4062 6.32816 73.4062H15.1875C15.5232 73.4062 15.8451 73.2729 16.0825 73.0356C16.3198 72.7982 16.4532 72.4763 16.4532 72.1406C16.4532 71.805 16.3198 71.483 16.0825 71.2457C15.8451 71.0083 15.5232 70.875 15.1875 70.875Z" fill="#F8DB72"/>
<path d="M20.25 70.875H18.9844C18.6487 70.875 18.3268 71.0083 18.0895 71.2457C17.8521 71.483 17.7188 71.805 17.7188 72.1406C17.7188 72.4763 17.8521 72.7982 18.0895 73.0356C18.3268 73.2729 18.6487 73.4062 18.9844 73.4062H20.25C20.5857 73.4062 20.9076 73.2729 21.145 73.0356C21.3823 72.7982 21.5157 72.4763 21.5157 72.1406C21.5157 71.805 21.3823 71.483 21.145 71.2457C20.9076 71.0083 20.5857 70.875 20.25 70.875Z" fill="#F8DB72"/>
<path d="M25.9637 31.821C25.8212 31.7355 25.6632 31.6789 25.4988 31.6544C25.3344 31.6299 25.1668 31.6381 25.0056 31.6784C24.8443 31.7187 24.6926 31.7904 24.5591 31.8893C24.4255 31.9883 24.3128 32.1126 24.2273 32.2551L16.6335 44.9114C16.4608 45.1992 16.4095 45.5439 16.4909 45.8695C16.5723 46.1951 16.7798 46.4751 17.0676 46.6478C17.3554 46.8205 17.7001 46.8718 18.0257 46.7904C18.3514 46.709 18.6313 46.5015 18.804 46.2137L26.3978 33.5574C26.4833 33.4149 26.5399 33.2569 26.5644 33.0925C26.5889 32.9282 26.5807 32.7605 26.5404 32.5993C26.5001 32.4381 26.4284 32.2863 26.3295 32.1528C26.2305 32.0192 26.1062 31.9065 25.9637 31.821Z" fill="#F8DB72"/>
<path d="M30.0977 32.1153C29.9938 31.9855 29.8654 31.8775 29.7198 31.7973C29.5741 31.7172 29.4141 31.6665 29.2489 31.6482C28.9152 31.6112 28.5805 31.7082 28.3184 31.918C28.0563 32.1278 27.8882 32.4331 27.8513 32.7668C27.8143 33.1005 27.9113 33.4352 28.1211 33.6973L32.5508 39.2344L28.1211 44.7715C27.9113 45.0337 27.8143 45.3684 27.8513 45.7021C27.8882 46.0357 28.0563 46.3411 28.3184 46.5508C28.5805 46.7606 28.9152 46.8577 29.2489 46.8207C29.5826 46.7837 29.8879 46.6157 30.0977 46.3536L35.1602 40.0255C35.3399 39.801 35.4379 39.522 35.4379 39.2344C35.4379 38.9469 35.3399 38.6679 35.1602 38.4434L30.0977 32.1153Z" fill="#F8DB72"/>
<path d="M12.9335 46.3535C13.1433 46.6156 13.4486 46.7836 13.7823 46.8206C14.116 46.8576 14.4507 46.7605 14.7128 46.5508C14.9749 46.341 15.143 46.0356 15.18 45.702C15.217 45.3683 15.1199 45.0336 14.9101 44.7714L10.4804 39.2343L14.9101 33.6972C15.014 33.5674 15.0913 33.4185 15.1376 33.2588C15.1839 33.0991 15.1983 32.9319 15.18 32.7667C15.1616 32.6015 15.111 32.4415 15.0308 32.2958C14.9506 32.1502 14.8426 32.0218 14.7128 31.9179C14.583 31.814 14.434 31.7367 14.2744 31.6904C14.1147 31.6441 13.9475 31.6297 13.7823 31.648C13.6171 31.6663 13.4571 31.717 13.3114 31.7972C13.1658 31.8773 13.0374 31.9854 12.9335 32.1152L7.871 38.4433C7.69128 38.6678 7.59335 38.9468 7.59335 39.2343C7.59335 39.5219 7.69128 39.8009 7.871 40.0253L12.9335 46.3535Z" fill="#F8DB72"/>
</svg>
